
<svg
   xmlnsDc="http://purl.org/dc/elements/1.1/"
   xmlnsCc="http://creativecommons.org/ns#"
   xmlnsRdf="http://www.w3.org/1999/02/22-rdf-syntax-ns#"
   xmlnsSvg="http://www.w3.org/2000/svg"
   xmlns="http://www.w3.org/2000/svg"
   viewBox="299.8746337890625 237.44265747070312 456.25189208984375 273.37335205078125"
   height="816"
   width="1056"
   xmlSpace="preserve"
   id="svg2"
   version="1.1"><metadata
     id="metadata8"><rdf:RDF><cc:Work
         rdfAbout=""><dc:format>image/svg+xml</dc:format><dc:type
           rdfResource="http://purl.org/dc/dcmitype/StillImage" /></cc:Work></rdf:RDF></metadata><defs
     id="defs6" /><g
     transform="matrix(1.3333333,0,0,-1.3333333,0,816)"
     id="g10"><g
       transform="scale(0.1)"
       id="g12"><path
         id="path14"
         style="fill:#24265d;fill-opacity:1;fill-rule:nonzero;stroke:none"
         d="m 2673.88,3282.19 h -34.87 c -143.32,-5.16 -219.51,-32.28 -219.51,-103.3 0,-47.77 37.45,-77.47 98.14,-77.47 90.38,0 154.95,55.52 156.24,135.57 z m -20.66,91.69 h 20.66 c 0,6.45 0,12.9 -1.29,18.06 -2.59,73.6 -47.77,113.64 -127.84,113.64 -86.5,0 -133,-43.9 -154.95,-91.69 -1.28,-2.57 -117.49,-11.61 -117.49,72.31 0,28.42 12.9,58.12 38.73,82.64 42.61,43.91 123.96,73.62 245.33,73.62 200.15,0 297,-91.68 297,-260.84 v -371.89 c 0,-9.05 -33.57,-20.66 -68.43,-20.66 -43.91,0 -78.77,18.09 -95.57,60.7 -3.86,11.61 -7.73,25.82 -10.33,42.6 -43.89,-68.43 -123.96,-108.46 -218.21,-108.46 -131.72,0 -211.77,72.31 -211.77,180.77 0,140.76 136.88,205.32 404.16,209.2" /><path
         id="path16"
         style="fill:#24265d;fill-opacity:1;fill-rule:nonzero;stroke:none"
         d="m 2987.66,3079.47 v 795.42 c 0,5.16 32.28,20.66 68.43,20.66 54.25,0 113.64,-28.42 113.64,-145.91 v -670.17 c 0,-65.87 -33.57,-86.52 -80.06,-86.52 h -19.37 c -47.77,0 -82.64,19.37 -82.64,86.52" /><path
         id="path18"
         style="fill:#24265d;fill-opacity:1;fill-rule:nonzero;stroke:none"
         d="m 3315.65,3079.47 v 795.42 c 0,5.16 32.28,20.66 68.44,20.66 54.23,0 113.63,-28.42 113.63,-145.91 v -670.17 c 0,-65.87 -33.56,-86.52 -80.06,-86.52 h -19.38 c -47.76,0 -82.63,19.37 -82.63,86.52" /><path
         id="path20"
         style="fill:#24265d;fill-opacity:1;fill-rule:nonzero;stroke:none"
         d="m 4140.76,3311.89 c 0,111.04 -65.84,184.64 -160.1,184.64 -77.49,0 -131.71,-40.01 -158.84,-103.3 v -118.78 c 0,-87.82 71.02,-148.5 156.27,-148.5 98.12,0 162.67,74.89 162.67,185.94 z m 174.33,1.29 c 0,-196.27 -118.78,-333.15 -291.82,-333.15 -96.83,0 -167.85,51.65 -201.45,114.93 v -260.84 c 0,-65.84 -33.57,-87.81 -80.03,-87.81 h -19.38 c -49.08,0 -82.64,20.66 -82.64,87.81 v 779.92 c 0,6.45 32.28,20.66 69.74,20.66 41.32,0 89.07,-19.35 104.59,-87.81 1.28,-5.16 2.57,-18.06 3.86,-28.39 37.46,76.19 111.05,123.96 206.6,123.96 170.46,0 290.53,-127.84 290.53,-329.28" /><path
         id="path22"
         style="fill:#24265d;fill-opacity:1;fill-rule:nonzero;stroke:none"
         d="m 4723.14,3500.41 c -102.01,0 -175.61,-78.76 -175.61,-187.23 0,-109.75 73.6,-189.82 175.61,-189.82 100.7,0 174.33,80.07 174.33,187.23 0,111.06 -72.31,189.82 -174.33,189.82 z m 1.29,142.05 c 198.85,0 334.43,-135.6 334.43,-331.87 0,-196.27 -136.87,-330.56 -337,-330.56 -200.17,0 -334.46,134.29 -334.46,333.15 0,193.68 136.87,329.28 337.03,329.28" /><path
         id="path24"
         style="fill:#24265d;fill-opacity:1;fill-rule:nonzero;stroke:none"
         d="m 5120.84,3122.08 c 0,46.48 50.36,76.18 55.55,72.31 42.6,-47.78 114.91,-85.22 207.89,-85.22 71.01,0 109.73,24.52 109.73,64.56 0,49.07 -50.33,58.1 -134.29,76.18 -86.51,18.07 -220.79,46.49 -220.79,188.52 0,122.67 99.44,204.03 262.1,204.03 127.87,0 206.61,-34.87 238.92,-83.95 10.33,-15.47 15.48,-33.56 15.48,-51.65 0,-47.77 -55.51,-80.05 -58.12,-76.17 -42.6,49.06 -111.02,85.21 -184.63,85.21 -69.73,0 -107.18,-25.82 -107.18,-65.84 0,-45.2 49.07,-54.24 134.28,-73.61 89.12,-19.35 231.17,-47.77 231.17,-189.82 0,-126.54 -100.74,-202.72 -277.63,-202.72 -99.44,0 -171.76,19.37 -216.93,47.77 -36.18,24.54 -55.55,55.53 -55.55,90.4" /><path
         id="path44"
         style="fill:#e3c20e;fill-opacity:1;fill-rule:nonzero;stroke:none"
         d="m 5584.05,3757.04 -27.77,44.56 -36.88,56.15 c -188.95,301.45 -513.89,481.43 -869.22,481.43 -241.52,0 -473.01,-86.73 -654.86,-237.3 l -83.87,69.12 c 0,0 -27.18,27.47 -65.84,12.99 -5.61,-2.1 -34.89,-13.71 -40.35,-50.02 -15.26,-101.44 -48.04,-255.06 -50.74,-269.38 -4.04,-21.43 -15.79,-52.35 14.78,-79.32 4.22,-3.72 8.68,-6.59 13.26,-8.81 0.38,-0.24 0.68,-0.56 1.07,-0.8 8.98,-5.34 19.05,-6.96 28.66,-5.65 20.76,-0.09 37.85,7.36 37.85,7.36 l 281.27,91.16 c 0,0 30.9,9.08 39.52,43.56 10.69,42.83 -19.76,61.38 -19.76,61.38 l -85.86,70.74 c 164.01,130.89 370.13,205.93 584.87,205.93 324.47,0 621.21,-164.36 793.76,-439.66 l 30.14,-48.15 c 0.42,-0.68 1.03,-1.15 1.49,-1.8 -0.05,-0.09 -0.1,-0.17 -0.14,-0.26 29.13,-54.28 61.41,-45.04 84.49,-30.68 15.7,9.78 25.53,25.21 24.13,27.45" /><path
         id="path46"
         style="fill:#e3c20e;fill-opacity:1;fill-rule:nonzero;stroke:none"
         d="m 5496.05,2823.29 c -33.38,28.45 -80.96,6.5 -80.96,6.5 l -279.65,-96.01 c 0,0 -30.75,-9.61 -38.76,-44.24 -9.95,-43.01 20.81,-61.02 20.81,-61.02 l 86.43,-68.74 c -159.5,-116.83 -353.72,-181.86 -553.74,-181.86 -259.96,0 -509.62,109.27 -686.39,299.81 -3.88,4.89 -8.24,9.94 -8.5,10.28 -6.27,8.03 -14.76,13.17 -23.89,15.58 -18.12,5.77 -34.36,-2.33 -47.2,-11.99 -14.65,-11.02 -23,-27.14 -21.43,-29.23 l 31.54,-41.45 c 23.55,-29.24 39.03,-43.14 50.82,-50.62 189.63,-179.5 442.49,-281.42 705.05,-281.42 227.19,0 447.59,76.54 625.77,213.61 l 84.65,-67.33 c 0,0 27.65,-27 66.06,-11.85 5.57,2.2 34.64,14.32 39.47,50.71 13.5,101.69 43.63,255.85 46.08,270.22 3.66,21.5 14.87,52.62 -16.16,79.05" /></g></g></svg>