<?xml version="1.0" standalone="no"?>
<!DOCTYPE svg PUBLIC "-//W3C//DTD SVG 20010904//EN"
 "http://www.w3.org/TR/2001/REC-SVG-20010904/DTD/svg10.dtd">
<svg version="1.0" xmlns="http://www.w3.org/2000/svg"
 width="512.000000pt" height="512.000000pt" viewBox="0 0 512.000000 512.000000"
 preserveAspectRatio="xMidYMid meet">

<g transform="translate(0.000000,512.000000) scale(0.100000,-0.100000)"
fill="#000000" stroke="none">
<path d="M76 5096 c-81 -49 -75 35 -76 -1105 l0 -1013 22 -39 c14 -25 37 -46
63 -59 41 -20 57 -20 1058 -18 1008 3 1016 3 1043 24 15 11 37 33 48 48 21 27
21 35 24 1043 2 1001 2 1017 -18 1058 -13 26 -34 49 -59 63 l-39 22 -1013 0
-1014 0 -39 -24z m1884 -1106 l0 -830 -830 0 -830 0 0 830 0 830 830 0 830 0
0 -830z"/>
<path d="M2636 5096 c-74 -44 -75 -52 -76 -392 0 -296 0 -302 23 -334 12 -18
35 -43 50 -54 28 -21 30 -21 982 -21 947 0 954 0 981 21 15 11 37 33 48 48 20
26 21 40 21 341 0 302 -1 315 -21 342 -11 15 -36 38 -54 51 l-33 22 -941 0
-941 0 -39 -24z m1734 -391 l0 -115 -755 0 -755 0 0 115 0 115 755 0 755 0 0
-115z"/>
<path d="M2634 3815 c-100 -60 -95 -209 10 -259 31 -14 145 -16 1198 -16 1114
0 1165 1 1198 19 42 22 80 83 80 130 0 48 -38 110 -82 132 -36 18 -78 19
-1200 19 l-1163 0 -41 -25z"/>
<path d="M2629 3287 c-92 -61 -90 -181 4 -251 28 -21 37 -21 530 -21 l502 0
33 23 c47 34 65 75 60 139 -3 38 -11 60 -29 79 -51 55 -39 54 -572 54 l-494 0
-34 -23z"/>
<path d="M84 2240 c-25 -13 -49 -35 -62 -59 l-22 -39 0 -1012 0 -1012 21 -38
c12 -21 38 -47 59 -59 l38 -21 1012 0 1012 0 39 22 c25 14 46 37 59 63 20 41
20 57 18 1058 -3 1008 -3 1016 -24 1043 -11 15 -33 37 -48 48 -27 21 -35 21
-1044 24 -1004 2 -1018 2 -1058 -18z m1876 -1110 l0 -830 -830 0 -830 0 0 830
0 830 830 0 830 0 0 -830z"/>
<path d="M2644 2240 c-25 -13 -49 -35 -62 -59 -21 -37 -22 -49 -22 -336 0
-287 1 -299 22 -336 14 -25 37 -46 63 -59 41 -20 57 -20 983 -18 932 3 941 3
968 24 15 11 37 33 48 48 20 26 21 40 21 341 0 301 -1 315 -21 341 -11 15 -33
37 -48 48 -27 21 -36 21 -969 24 -929 2 -943 2 -983 -18z m1726 -395 l0 -115
-755 0 -755 0 0 115 0 115 755 0 755 0 0 -115z"/>
<path d="M2644 960 c-47 -24 -84 -81 -84 -132 0 -45 30 -98 70 -125 l33 -23
1177 0 1177 0 33 23 c97 66 89 207 -15 257 -41 20 -62 20 -1196 20 -1137 0
-1155 0 -1195 -20z"/>
<path d="M2642 433 c-108 -53 -106 -210 3 -263 40 -19 62 -20 521 -20 436 0
482 2 514 18 103 51 108 201 8 262 -32 19 -51 20 -523 20 -431 0 -494 -2 -523
-17z"/>
</g>
</svg>
