<?xml version="1.0" encoding="UTF-8"?>
<!DOCTYPE svg PUBLIC "-//W3C//DTD SVG 1.1//EN" "http://www.w3.org/Graphics/SVG/1.1/DTD/svg11.dtd">
<!-- Creator: CorelDRAW 2019 (64-Bit) -->
<svg xmlns="http://www.w3.org/2000/svg" xml:space="preserve" width="3in" height="3in" version="1.1" style="shape-rendering:geometricPrecision; text-rendering:geometricPrecision; image-rendering:optimizeQuality; fill-rule:evenodd; clip-rule:evenodd"
viewBox="0 0 1309.15 1309.15"
 xmlns:xlink="http://www.w3.org/1999/xlink"
 xmlns:xodm="http://www.corel.com/coreldraw/odm/2003">
 <defs>
  <style type="text/css">
   <![CDATA[
    .str0 {stroke:#373435;stroke-width:8.59;stroke-miterlimit:2.61313}
    .fil2 {fill:none}
    .fil0 {fill:#FEFEFE}
    .fil9 {fill:#ED3237}
    .fil5 {fill:#59C9EC}
    .fil4 {fill:#00AFEF}
    .fil7 {fill:#321D1A}
    .fil10 {fill:#4A2927}
    .fil8 {fill:#53302A}
    .fil3 {fill:#6D6A74}
    .fil11 {fill:#9D4A21}
    .fil6 {fill:#EDE2D5}
    .fil1 {fill:#006CB5;fill-rule:nonzero}
   ]]>
  </style>
 </defs>
 <g id="Layer_x0020_1">
  <metadata id="CorelCorpID_0Corel-Layer"/>
  <g id="_1024331488">
   <polygon class="fil0" points="-0,1309.15 1309.15,1309.15 1309.15,0 -0,0 "/>
   <g>
    <g>
     <path class="fil1" d="M581.78 219.46c-0.87,0 -1.58,-0.21 -2.11,-0.63 -0.53,-0.42 -0.96,-1.08 -1.28,-1.99l-10.13 -28.66c-0.36,-1.03 -0.28,-1.91 0.22,-2.62 0.5,-0.71 1.35,-1.07 2.55,-1.07 0.87,0 1.55,0.2 2.04,0.6 0.48,0.41 0.87,1.04 1.16,1.92l8.73 25.89 -1.94 0 9.11 -25.84c0.32,-0.87 0.73,-1.52 1.21,-1.94 0.48,-0.42 1.12,-0.63 1.89,-0.63 0.77,0 1.39,0.21 1.84,0.63 0.45,0.42 0.84,1.08 1.16,1.99l8.83 25.79 -1.7 0 8.87 -25.89c0.29,-0.84 0.68,-1.47 1.16,-1.89 0.48,-0.42 1.15,-0.63 1.99,-0.63 1.03,0 1.79,0.36 2.28,1.07 0.49,0.71 0.55,1.58 0.19,2.62l-10.23 28.7c-0.32,0.87 -0.74,1.52 -1.26,1.94 -0.52,0.42 -1.21,0.63 -2.09,0.63 -0.87,0 -1.57,-0.21 -2.08,-0.63 -0.52,-0.42 -0.94,-1.08 -1.26,-1.99l-8.44 -24.05 1.12 0 -8.53 24.1c-0.32,0.87 -0.74,1.52 -1.24,1.94 -0.5,0.42 -1.19,0.63 -2.06,0.63z"/>
     <path id="1" class="fil1" d="M638.17 219.55c-3.3,0 -6.18,-0.73 -8.65,-2.18 -2.47,-1.45 -4.39,-3.5 -5.75,-6.13 -1.36,-2.63 -2.04,-5.73 -2.04,-9.28 0,-2.68 0.39,-5.1 1.16,-7.25 0.78,-2.15 1.88,-3.99 3.32,-5.53 1.44,-1.54 3.17,-2.71 5.19,-3.54 2.02,-0.82 4.28,-1.24 6.76,-1.24 3.33,0 6.22,0.72 8.68,2.16 2.46,1.44 4.36,3.47 5.72,6.09 1.36,2.62 2.04,5.71 2.04,9.26 0,2.68 -0.39,5.11 -1.16,7.27 -0.77,2.16 -1.88,4.02 -3.32,5.58 -1.44,1.55 -3.17,2.74 -5.19,3.56 -2.02,0.82 -4.27,1.24 -6.76,1.24zm0 -5.33c2.1,0 3.89,-0.48 5.36,-1.46 1.47,-0.97 2.6,-2.38 3.39,-4.22 0.79,-1.84 1.19,-4.04 1.19,-6.59 0,-3.88 -0.87,-6.89 -2.59,-9.02 -1.73,-2.13 -4.18,-3.2 -7.35,-3.2 -2.07,0 -3.85,0.48 -5.33,1.43 -1.49,0.95 -2.63,2.34 -3.42,4.17 -0.79,1.83 -1.19,4.03 -1.19,6.62 0,3.85 0.87,6.85 2.62,9.02 1.75,2.17 4.19,3.25 7.32,3.25z"/>
     <path id="2" class="fil1" d="M664.02 219.46c-1,0 -1.77,-0.28 -2.3,-0.85 -0.53,-0.57 -0.8,-1.35 -0.8,-2.35l0 -28.22c0,-1.03 0.27,-1.82 0.82,-2.35 0.55,-0.53 1.32,-0.8 2.33,-0.8l11.68 0c3.75,0 6.64,0.9 8.68,2.69 2.04,1.79 3.05,4.31 3.05,7.54 0,2.1 -0.46,3.91 -1.38,5.43 -0.92,1.52 -2.25,2.68 -4,3.49 -1.75,0.81 -3.86,1.21 -6.35,1.21l0.44 -0.73 1.6 0c1.33,0 2.48,0.32 3.47,0.97 0.99,0.65 1.85,1.66 2.59,3.05l3.64 6.74c0.39,0.68 0.57,1.34 0.53,1.99 -0.03,0.65 -0.27,1.17 -0.73,1.58 -0.45,0.4 -1.12,0.61 -1.99,0.61 -0.87,0 -1.58,-0.19 -2.13,-0.56 -0.55,-0.37 -1.03,-0.94 -1.46,-1.72l-4.9 -9.02c-0.58,-1.1 -1.27,-1.83 -2.06,-2.21 -0.79,-0.37 -1.8,-0.56 -3.03,-0.56l-4.61 0 0 10.86c0,1 -0.26,1.79 -0.78,2.35 -0.52,0.57 -1.29,0.85 -2.33,0.85zm3.1 -18.67l7.56 0c2.23,0 3.92,-0.46 5.07,-1.38 1.15,-0.92 1.72,-2.3 1.72,-4.15 0,-1.81 -0.57,-3.18 -1.72,-4.1 -1.15,-0.92 -2.84,-1.38 -5.07,-1.38l-7.56 0 0 11.01z"/>
     <path id="3" class="fil1" d="M697.33 219.07c-1,0 -1.78,-0.28 -2.33,-0.85 -0.55,-0.57 -0.82,-1.35 -0.82,-2.35l0 -27.98c0,-1.03 0.27,-1.82 0.8,-2.35 0.53,-0.53 1.3,-0.8 2.3,-0.8 1,0 1.77,0.27 2.3,0.8 0.53,0.53 0.8,1.32 0.8,2.35l0 25.89 14.06 0c0.87,0 1.54,0.23 2.01,0.68 0.47,0.45 0.7,1.1 0.7,1.94 0,0.84 -0.23,1.49 -0.7,1.96 -0.47,0.47 -1.14,0.7 -2.01,0.7l-17.12 0z"/>
     <path id="4" class="fil1" d="M724.72 219.07c-1.07,0 -1.88,-0.28 -2.45,-0.85 -0.57,-0.57 -0.85,-1.38 -0.85,-2.45l0 -27.59c0,-1.07 0.28,-1.88 0.85,-2.45 0.57,-0.57 1.38,-0.85 2.45,-0.85l9.41 0c5.72,0 10.14,1.47 13.26,4.41 3.12,2.94 4.68,7.16 4.68,12.66 0,2.75 -0.4,5.18 -1.19,7.3 -0.79,2.12 -1.96,3.9 -3.49,5.36 -1.54,1.45 -3.41,2.56 -5.62,3.32 -2.21,0.76 -4.76,1.14 -7.64,1.14l-9.41 0zm2.91 -5.14l6.11 0c2,0 3.74,-0.25 5.21,-0.75 1.47,-0.5 2.7,-1.24 3.69,-2.23 0.99,-0.99 1.72,-2.23 2.21,-3.73 0.49,-1.5 0.73,-3.26 0.73,-5.26 0,-4.01 -0.99,-7 -2.96,-8.97 -1.97,-1.97 -4.93,-2.96 -8.87,-2.96l-6.11 0 0 23.9z"/>
     <path class="fil1" d="M616.01 327.8c-1.07,0 -1.88,-0.28 -2.45,-0.85 -0.57,-0.57 -0.85,-1.38 -0.85,-2.45l0 -27.59c0,-1.07 0.28,-1.88 0.85,-2.45 0.57,-0.57 1.38,-0.85 2.45,-0.85l9.41 0c5.72,0 10.14,1.47 13.26,4.41 3.12,2.94 4.68,7.16 4.68,12.66 0,2.75 -0.4,5.18 -1.19,7.3 -0.79,2.12 -1.96,3.9 -3.49,5.36 -1.53,1.45 -3.41,2.56 -5.62,3.32 -2.21,0.76 -4.76,1.14 -7.64,1.14l-9.41 0zm2.91 -5.14l6.11 0c2,0 3.74,-0.25 5.21,-0.75 1.47,-0.5 2.7,-1.24 3.69,-2.23 0.99,-0.99 1.72,-2.23 2.21,-3.73 0.48,-1.5 0.73,-3.26 0.73,-5.26 0,-4.01 -0.99,-7 -2.96,-8.97 -1.97,-1.97 -4.93,-2.96 -8.87,-2.96l-6.11 0 0 23.9z"/>
     <path id="1" class="fil1" d="M649.28 328.19c-0.78,0 -1.4,-0.18 -1.87,-0.53 -0.47,-0.36 -0.75,-0.83 -0.85,-1.43 -0.1,-0.6 0.02,-1.27 0.34,-2.01l12.8 -28.37c0.42,-0.94 0.93,-1.61 1.53,-2.01 0.6,-0.4 1.29,-0.61 2.06,-0.61 0.74,0 1.42,0.2 2.01,0.61 0.6,0.4 1.11,1.08 1.53,2.01l12.85 28.37c0.36,0.74 0.48,1.42 0.39,2.04 -0.1,0.61 -0.37,1.09 -0.82,1.43 -0.45,0.34 -1.05,0.51 -1.79,0.51 -0.91,0 -1.61,-0.22 -2.11,-0.65 -0.5,-0.44 -0.94,-1.11 -1.33,-2.01l-3.15 -7.32 2.62 1.7 -20.46 0 2.62 -1.7 -3.1 7.32c-0.42,0.94 -0.86,1.61 -1.31,2.04 -0.45,0.42 -1.1,0.63 -1.94,0.63zm13.91 -27.83l-6.79 16.15 -1.26 -1.55 16.19 0 -1.21 1.55 -6.84 -16.15 -0.1 0z"/>
     <path id="2" class="fil1" d="M693.1 328.19c-1,0 -1.77,-0.28 -2.3,-0.85 -0.53,-0.57 -0.8,-1.37 -0.8,-2.4l0 -14.74 1.31 3.73 -11.68 -16.44c-0.42,-0.58 -0.61,-1.2 -0.56,-1.87 0.05,-0.66 0.32,-1.23 0.8,-1.7 0.48,-0.47 1.16,-0.7 2.04,-0.7 0.65,0 1.24,0.16 1.77,0.49 0.53,0.32 1.04,0.82 1.53,1.5l8.68 12.32 -1.36 0 8.73 -12.32c0.52,-0.71 1.02,-1.22 1.5,-1.53 0.48,-0.31 1.08,-0.46 1.79,-0.46 0.84,0 1.5,0.22 1.96,0.65 0.47,0.44 0.71,0.98 0.73,1.63 0.02,0.65 -0.22,1.32 -0.7,2.04l-11.59 16.39 1.26 -3.73 0 14.74c0,2.16 -1.03,3.25 -3.1,3.25z"/>
     <path class="fil1" d="M534.5 285.07c-1.74,0 -3.06,-0.49 -3.99,-1.47 -0.92,-0.98 -1.39,-2.34 -1.39,-4.07l0 -48.88c0,-1.79 0.48,-3.15 1.43,-4.07 0.95,-0.92 2.3,-1.39 4.03,-1.39l20.24 0c6.5,0 11.51,1.55 15.03,4.66 3.53,3.11 5.29,7.46 5.29,13.06 0,3.64 -0.8,6.77 -2.39,9.41 -1.59,2.63 -3.91,4.65 -6.93,6.05 -3.02,1.4 -6.69,2.1 -11,2.1l0.76 -1.26 2.77 0c2.3,0 4.3,0.56 6.01,1.68 1.71,1.12 3.21,2.88 4.49,5.29l6.3 11.67c0.67,1.18 0.98,2.32 0.92,3.44 -0.06,1.12 -0.48,2.03 -1.26,2.73 -0.79,0.7 -1.93,1.05 -3.45,1.05 -1.51,0 -2.74,-0.32 -3.69,-0.97 -0.95,-0.64 -1.79,-1.64 -2.52,-2.98l-8.48 -15.62c-1.01,-1.9 -2.2,-3.17 -3.57,-3.82 -1.37,-0.64 -3.12,-0.96 -5.25,-0.96l-7.98 0 0 18.81c0,1.74 -0.45,3.09 -1.34,4.07 -0.9,0.98 -2.24,1.47 -4.03,1.47zm5.38 -32.34l13.1 0c3.86,0 6.79,-0.8 8.78,-2.39 1.99,-1.6 2.98,-3.99 2.98,-7.18 0,-3.14 -0.99,-5.5 -2.98,-7.1 -1.99,-1.6 -4.91,-2.39 -8.78,-2.39l-13.1 0 0 19.07zm46.36 32.34c-1.34,0 -2.42,-0.31 -3.23,-0.92 -0.81,-0.62 -1.3,-1.44 -1.47,-2.48 -0.17,-1.04 0.03,-2.2 0.59,-3.49l22.17 -49.13c0.73,-1.62 1.61,-2.78 2.65,-3.48 1.04,-0.7 2.23,-1.05 3.57,-1.05 1.29,0 2.45,0.35 3.49,1.05 1.04,0.7 1.92,1.86 2.65,3.48l22.26 49.13c0.62,1.29 0.84,2.47 0.67,3.53 -0.17,1.07 -0.64,1.89 -1.43,2.48 -0.78,0.59 -1.82,0.88 -3.11,0.88 -1.57,0 -2.78,-0.38 -3.65,-1.13 -0.87,-0.76 -1.64,-1.92 -2.31,-3.49l-5.46 -12.68 4.54 2.94 -35.44 0 4.54 -2.94 -5.38 12.68c-0.73,1.62 -1.48,2.8 -2.27,3.53 -0.78,0.73 -1.9,1.09 -3.36,1.09zm24.11 -48.21l-11.76 27.97 -2.18 -2.69 28.05 0 -2.1 2.69 -11.84 -27.97 -0.17 0zm43.51 47.54c-1.85,0 -3.26,-0.49 -4.24,-1.47 -0.98,-0.98 -1.47,-2.39 -1.47,-4.24l0 -47.79c0,-1.85 0.49,-3.26 1.47,-4.24 0.98,-0.98 2.39,-1.47 4.24,-1.47l16.29 0c9.91,0 17.57,2.55 22.97,7.64 5.4,5.1 8.1,12.4 8.1,21.92 0,4.76 -0.69,8.97 -2.06,12.64 -1.37,3.67 -3.39,6.76 -6.05,9.28 -2.66,2.52 -5.91,4.44 -9.74,5.75 -3.84,1.32 -8.25,1.97 -13.23,1.97l-16.29 0zm5.04 -8.9l10.58 0c3.47,0 6.48,-0.43 9.03,-1.3 2.55,-0.87 4.68,-2.16 6.39,-3.86 1.71,-1.71 2.98,-3.86 3.82,-6.47 0.84,-2.6 1.26,-5.64 1.26,-9.11 0,-6.94 -1.71,-12.12 -5.12,-15.54 -3.42,-3.41 -8.54,-5.12 -15.37,-5.12l-10.58 0 0 41.41zm58.63 9.57c-1.74,0 -3.06,-0.49 -3.99,-1.47 -0.92,-0.98 -1.39,-2.34 -1.39,-4.07l0 -49.47c0,-1.79 0.46,-3.16 1.39,-4.11 0.93,-0.95 2.25,-1.43 3.99,-1.43 1.74,0 3.07,0.48 3.99,1.43 0.92,0.95 1.39,2.32 1.39,4.11l0 49.47c0,1.74 -0.45,3.09 -1.34,4.07 -0.9,0.98 -2.24,1.47 -4.03,1.47zm44.85 0.17c-5.71,0 -10.71,-1.26 -14.99,-3.78 -4.28,-2.52 -7.6,-6.06 -9.95,-10.62 -2.35,-4.56 -3.53,-9.93 -3.53,-16.08 0,-4.65 0.67,-8.83 2.02,-12.56 1.34,-3.72 3.26,-6.92 5.75,-9.57 2.49,-2.66 5.49,-4.7 8.99,-6.13 3.5,-1.43 7.4,-2.14 11.72,-2.14 5.77,0 10.78,1.25 15.03,3.74 4.25,2.49 7.56,6 9.91,10.54 2.35,4.54 3.53,9.88 3.53,16.04 0,4.65 -0.67,8.85 -2.01,12.6 -1.35,3.75 -3.26,6.97 -5.76,9.66 -2.49,2.69 -5.49,4.75 -8.99,6.17 -3.5,1.43 -7.41,2.14 -11.72,2.14zm0 -9.24c3.64,0 6.73,-0.84 9.28,-2.52 2.55,-1.68 4.51,-4.12 5.88,-7.31 1.37,-3.19 2.06,-7 2.06,-11.42 0,-6.72 -1.5,-11.93 -4.49,-15.62 -3,-3.69 -7.24,-5.54 -12.73,-5.54 -3.58,0 -6.66,0.83 -9.24,2.48 -2.58,1.65 -4.55,4.06 -5.92,7.22 -1.37,3.16 -2.06,6.99 -2.06,11.47 0,6.66 1.51,11.87 4.54,15.62 3.02,3.75 7.25,5.63 12.68,5.63z"/>
    </g>
    <g>
     <path class="fil2 str0" d="M520.39 337.96c-23.28,-23.28 -36.36,-54.86 -36.36,-87.79 0,-32.93 13.08,-64.5 36.36,-87.79"/>
     <path class="fil2 str0" d="M491.44 392.3c-37.7,-37.7 -58.87,-88.82 -58.87,-142.14 0,-53.31 21.18,-104.44 58.87,-142.14"/>
     <path class="fil2 str0" d="M449.51 428.67c-47.34,-47.34 -73.94,-111.55 -73.94,-178.5 0,-66.95 26.6,-131.16 73.94,-178.5"/>
    </g>
    <g>
     <path class="fil2 str0" d="M788.77 337.96c23.28,-23.28 36.36,-54.86 36.36,-87.79 0,-32.93 -13.08,-64.5 -36.36,-87.79"/>
     <path class="fil2 str0" d="M817.71 392.3c37.7,-37.7 58.87,-88.82 58.87,-142.14 0,-53.31 -21.18,-104.44 -58.87,-142.14"/>
     <path class="fil2 str0" d="M859.65 428.67c47.34,-47.34 73.94,-111.55 73.94,-178.5 0,-66.95 -26.6,-131.16 -73.94,-178.5"/>
    </g>
   </g>
   <g>
    <path class="fil3" d="M490.1 781.72l7.94 -19.82 -147.74 -338.33c-4.46,-10.08 -34.78,-76.22 -34.97,-80.9 -2.69,1.86 -3.66,3.26 -7.33,4.44 -1.95,0.63 -1.88,0.61 -4.09,1.41 -1.7,0.62 -1.68,0.43 -3.51,1.29 3.64,3.22 7.7,15.07 9.9,20.11 3.19,7.3 6.05,13.66 9.25,20.99l170.55 390.81z"/>
    <path class="fil4" d="M387.58 717.46l0.08 96.73c1.56,14.08 -0.07,208.52 0.15,231.38 0.2,20.39 4.57,31.81 26.13,31.94l172.33 -0.01c77.04,0.01 154.09,-0.05 231.13,-0l173.34 -0c20.5,0.03 31.44,-3.86 32.61,-24.79 1.02,-18.3 -0.13,-39.15 -0.13,-57.82l0 -173.34c0,-21.54 1.13,-101.07 -0.13,-115.56 -1.95,-22.58 -23.59,-21.33 -36.4,-21.33 -171.81,0.02 -345.11,1.6 -516.59,-0.03l-21.35 -0.23c-11.28,0.98 -36.97,-1.45 -45.57,1.63 -5.08,1.81 -10.32,6.81 -12.47,10.9 -3.64,6.92 -2.07,12.47 -3.14,20.54z"/>
    <rect class="fil5" x="424.29" y="714.05" width="422.36" height="103.7"/>
    <path class="fil6" d="M425.12 1027.33c1.53,9.38 9.28,17.63 18.56,20.11 9.29,2.48 306.6,0.91 342.3,0.91 24.09,0 51.85,5.22 59.73,-16.11 3.3,-8.93 1.79,-91.76 1.79,-112.36 0,-22.48 5.73,-50.84 -18.07,-57.64 -7.7,-2.2 -101.13,-1.11 -113.39,-1.11l-229.1 0.05c-26.49,0 -50.78,-5.66 -60.11,15.8 -4,9.22 -2.07,60.47 -2.07,74.32 0,11.84 -0.75,69.23 0.36,76.03z"/>
    <path class="fil7" d="M933.99 726.47c-3.67,10.3 -1.61,20.75 -6.74,26 -1.31,-9.3 -3.22,-17.23 -4.6,-26.19 -50.7,6.98 -45,80.57 4.23,81.68 36.69,0.83 53.89,-42.57 32.12,-67.18 -8.15,-9.21 -11.8,-10.62 -25,-14.32z"/>
    <path class="fil8" d="M933.99 726.47c13.2,3.7 16.86,5.11 25,14.32 21.78,24.61 4.57,68.01 -32.12,67.18 -49.23,-1.11 -54.92,-74.7 -4.23,-81.68 1.38,8.96 3.28,16.89 4.6,26.19 5.13,-5.26 3.07,-15.71 6.74,-26zm-17.22 -12.85c-26.47,5.66 -49.24,31.07 -42.62,64.24 5.18,25.95 31.39,49.06 63.81,42.7 26.67,-5.23 49.75,-30.84 43.2,-64.4 -5.09,-26.08 -31.57,-49.56 -64.38,-42.54z"/>
    <path class="fil9" d="M287.78 363.38c1.46,1.39 1.28,1.44 2.47,2.8 1.55,1.77 1.5,1.71 2.8,3.3 2.43,2.99 4.09,3.4 6.79,5.23 29.84,11.48 49.03,-24.48 28.65,-42.8 -20.18,-18.15 -52.15,0.12 -40.71,31.46z"/>
    <path class="fil10" d="M387.66 814.19l-0.08 -96.73c-21.45,-0.43 -16.22,0.82 -16.73,48.33 -0.51,47.36 -3.78,49.91 16.81,48.4z"/>
    <g>
     <polygon class="fil11" points="750.17,817.5 761.73,817.58 761.82,753.14 750.2,753.04 "/>
     <polygon class="fil11" points="678.48,817.58 689.98,817.52 689.98,753.36 678.46,753.5 "/>
     <polygon class="fil11" points="534.11,818.12 545.19,818.07 545.11,753.35 534.05,753.51 "/>
     <polygon class="fil11" points="459.44,817.56 470.59,817.55 470.62,753.59 459.46,753.38 "/>
     <polygon class="fil11" points="824.75,817.48 835.88,818.14 835.86,753.45 824.74,753.7 "/>
     <polygon class="fil11" points="605.66,817.54 616.74,818.14 616.69,753.55 605.67,753.61 "/>
     <polygon class="fil11" points="702.55,817.52 713.99,817.58 714.02,781.86 702.56,781.8 "/>
     <polygon class="fil11" points="435.06,817.55 446.51,817.54 446.51,781.82 435.06,781.85 "/>
     <polygon class="fil11" points="495.59,781.67 484.61,781.77 484.61,818.12 495.68,818.05 "/>
     <polygon class="fil11" points="726.24,817.46 737.28,817.44 737.4,781.5 726.17,781.58 "/>
     <polygon class="fil11" points="592.79,817.48 592.84,781.81 581.79,781.71 581.73,818.14 "/>
     <polygon class="fil11" points="519.95,781.62 509.05,781.86 509.05,818.08 520.08,818.07 "/>
     <polygon class="fil11" points="630.84,817.55 641.99,817.59 641.98,781.87 630.83,781.89 "/>
     <polygon class="fil11" points="558.07,817.44 568.97,817.64 569.23,781.65 558,781.66 "/>
     <polygon class="fil11" points="786.8,817.53 786.87,781.89 775.83,781.97 775.85,818.1 "/>
     <polygon class="fil11" points="653.37,817.59 664.37,818.13 664.34,781.92 653.37,782.04 "/>
     <polygon class="fil11" points="810.69,781.69 800.26,782 800.28,818.09 810.87,818.05 "/>
    </g>
    <g>
     <rect class="fil7" x="871.66" y="872.05" width="51.42" height="30.4" rx="7.1" ry="7.1"/>
     <rect class="fil7" x="871.66" y="918.34" width="51.42" height="30.4" rx="7.1" ry="7.1"/>
     <rect class="fil7" x="871.66" y="964.62" width="51.42" height="30.4" rx="7.1" ry="7.1"/>
     <rect class="fil7" x="871.66" y="1010.9" width="51.42" height="30.4" rx="7.1" ry="7.1"/>
     <rect class="fil7" x="932.44" y="872.05" width="51.42" height="30.4" rx="7.1" ry="7.1"/>
     <rect class="fil7" x="932.44" y="918.34" width="51.42" height="30.4" rx="7.1" ry="7.1"/>
     <rect class="fil7" x="932.44" y="964.62" width="51.42" height="30.4" rx="7.1" ry="7.1"/>
     <rect class="fil7" x="932.44" y="1010.9" width="51.42" height="30.4" rx="7.1" ry="7.1"/>
    </g>
   </g>
  </g>
 </g>
</svg>
