<svg xmlns="http://www.w3.org/2000/svg" viewBox="0 0 750 500"><g id="freepik--background-complete--inject-14"><path d="M650,220.72a28.4,28.4,0,0,1-8.4,3.4,29,29,0,1,1,8.4-3.4Z" style="fill:#ebebeb"></path><path d="M643.92,192.67a8.82,8.82,0,1,1-8.71-8.92A8.82,8.82,0,0,1,643.92,192.67Z" style="fill:#fff"></path><path d="M650.06,217.08l0,3.64a28.4,28.4,0,0,1-8.4,3.4,28.81,28.81,0,0,1-22.08-3.77l0-3.63a15.25,15.25,0,0,1,30.49.36Z" style="fill:#fff"></path><path d="M114.72,138.82a19,19,0,0,1-28.29-12,19,19,0,1,1,28.29,12Z" style="fill:#ebebeb"></path><path d="M110.73,120.45A5.78,5.78,0,1,1,105,114.6,5.78,5.78,0,0,1,110.73,120.45Z" style="fill:#fff"></path><path d="M114.75,136.44l0,2.38a19,19,0,0,1-20-.25l0-2.37a10,10,0,1,1,20,.24Z" style="fill:#fff"></path><path d="M261.56,140.3H134.92V53.67H261.56Zm-125.64-1H260.56V54.67H135.92Z" style="fill:#ebebeb"></path><path d="M144.82,59.25a2.52,2.52,0,1,1-2.52-2.52A2.52,2.52,0,0,1,144.82,59.25Z" style="fill:#a6a6a6"></path><path d="M155.11,59.25a2.52,2.52,0,1,1-2.52-2.52A2.52,2.52,0,0,1,155.11,59.25Z" style="fill:#ebebeb"></path><path d="M165.41,59.25a2.53,2.53,0,1,1-2.52-2.52A2.52,2.52,0,0,1,165.41,59.25Z" style="fill:#EDCD2F"></path><rect x="135.42" y="63.68" width="125.64" height="1" style="fill:#ebebeb"></rect><rect x="85.57" y="185.02" width="66.59" height="42.23" transform="translate(-26.76 17.95) rotate(-7.77)" style="fill:#ebebeb"></rect><path d="M149,180.72c-2.32,2.91-4.7,5.72-7,8.6s-4.75,5.64-7.15,8.44-5,5.82-7.52,8.71l-.22.27q-3.34,3.82-6.7,7.63l-.34.37-.41-.26c-2.83-1.86-5.66-3.71-8.49-5.58a2.49,2.49,0,0,1-.3-.19q-4.8-3.15-9.59-6.38-4.56-3.08-9.13-6.22c-3-2.14-6.08-4.21-9.09-6.39,3.13,1.79,6.23,3.71,9.34,5.56s6.21,3.8,9.3,5.74q5.16,3.21,10.33,6.53h0l7.73,4.95c2-2.28,4.07-4.58,6.11-6.84l0,0c2.72-3,5.45-6.06,8.2-9q3.69-4,7.42-8C144,186,146.47,183.29,149,180.72Z" style="fill:#fff"></path><path d="M112.22,208.49a.5.5,0,0,0-.07.08l-.92,1c-1.47,1.63-3,3.2-4.53,4.73-1.88,1.89-3.82,3.72-5.77,5.54s-4,3.58-6,5.31-4.09,3.43-6.25,5c1.76-2,3.62-3.95,5.51-5.83s3.83-3.72,5.77-5.54,4-3.59,6-5.32c1.61-1.38,3.27-2.75,5-4l1.18-.9Z" style="fill:#fff"></path><path d="M154.37,221.24c-2.51-1-5-2.05-7.37-3.17s-4.81-2.31-7.19-3.51-4.73-2.48-7.05-3.79c-1.89-1.07-3.76-2.17-5.6-3.34l-1.17-.75-.09-.06.11,0,1.38.56c2,.8,3.94,1.67,5.87,2.57,2.43,1.12,4.81,2.31,7.19,3.52s4.72,2.47,7,3.79S152.13,219.76,154.37,221.24Z" style="fill:#fff"></path><rect x="596.23" y="226.85" width="66.9" height="105.49" transform="translate(212.56 827.94) rotate(-76.68)" style="fill:#ebebeb"></rect><path d="M688.71,259.19c-5.09,3-10.21,5.78-15.31,8.7s-10.24,5.64-15.38,8.41q-8,4.35-16.08,8.58l-.49.28q-7.11,3.73-14.25,7.46l-.7.35-.45-.62q-4.71-6.53-9.38-13.08c-.11-.13-.22-.29-.33-.45-3.54-4.94-7.05-9.89-10.54-14.9-3.33-4.76-6.65-9.58-10-14.39s-6.58-9.69-9.79-14.64c3.61,4.45,7.09,9,10.63,13.55s7,9.15,10.48,13.78q5.8,7.69,11.55,15.54s0,0,0,0c2.87,3.89,5.74,7.81,8.61,11.72,4.3-2.22,8.62-4.45,12.93-6.62,0,0,0,0,0,0,5.76-2.93,11.51-5.85,17.28-8.71q7.75-3.86,15.53-7.6C678.32,264.09,683.49,261.55,688.71,259.19Z" style="fill:#fff"></path><path d="M618.51,279.28c-.06,0-.1.06-.15.08l-1.94,1q-4.63,2.34-9.38,4.4c-3.86,1.73-7.77,3.33-11.69,4.9s-7.87,3-11.86,4.44-8,2.75-12.11,3.88c3.76-2,7.6-3.77,11.46-5.48s7.78-3.32,11.69-4.9,7.89-3,11.88-4.45c3.18-1.12,6.4-2.2,9.65-3.15.76-.23,1.51-.44,2.27-.65Z" style="fill:#fff"></path><path d="M673.55,322.15c-3.16-2.85-6.16-5.85-9.08-8.89s-5.79-6.16-8.63-9.29-5.58-6.35-8.26-9.62c-2.19-2.65-4.33-5.34-6.38-8.12l-1.3-1.77s-.06-.1-.1-.14a.63.63,0,0,0,.13.11l1.74,1.62c2.48,2.31,4.86,4.71,7.21,7.14,2.94,3.05,5.79,6.16,8.61,9.3s5.58,6.35,8.26,9.62S671.08,318.68,673.55,322.15Z" style="fill:#fff"></path><rect x="411.8" y="38.96" width="60.61" height="38.44" style="fill:#ebebeb"></rect><path d="M472.4,39c-2.44,2.34-4.94,4.58-7.4,6.89s-5,4.51-7.49,6.73-5.23,4.64-7.85,6.93l-.24.22-7,6.06-.34.28-.34-.28-7-6.07-.25-.21q-3.94-3.43-7.86-6.94c-2.5-2.21-5-4.47-7.47-6.72s-5-4.55-7.41-6.89c2.6,2,5.16,4.11,7.73,6.17s5.14,4.18,7.69,6.32q4.25,3.52,8.5,7.15l0,0c2.12,1.79,4.24,3.6,6.37,5.41,2.11-1.81,4.23-3.63,6.35-5.41,0,0,0,0,0,0q4.25-3.6,8.51-7.16,3.81-3.18,7.67-6.3C467.24,43.07,469.8,41,472.4,39Z" style="fill:#fff"></path><path d="M435.82,59.48s-.05.05-.08.06c-.32.28-.63.55-.95.81-1.52,1.29-3.08,2.52-4.66,3.71-1.93,1.47-3.91,2.88-5.89,4.29s-4,2.73-6,4.05-4.12,2.59-6.26,3.76c1.84-1.61,3.75-3.11,5.68-4.57s3.92-2.89,5.89-4.29,4-2.75,6.05-4.06c1.63-1.05,3.29-2.08,5-3l1.18-.67Z" style="fill:#fff"></path><path d="M472.26,76.16C470.12,75,468,73.71,466,72.4S462,69.72,460,68.35s-4-2.82-5.89-4.29c-1.57-1.19-3.13-2.41-4.64-3.7l-1-.82s0,0-.07-.06l.09.05,1.18.67c1.69,1,3.34,2,5,3,2.05,1.31,4.05,2.68,6,4.06s4,2.81,5.89,4.29S470.42,74.55,472.26,76.16Z" style="fill:#fff"></path></g><g id="freepik--Floor--inject-14"><polygon points="50.72 356.77 131.79 356.52 212.86 356.43 375 356.27 537.14 356.43 618.21 356.52 699.28 356.77 618.21 357.01 537.14 357.1 375 357.26 212.86 357.1 131.79 357.01 50.72 356.77" style="fill:#263238"></polygon></g><g id="freepik--Device--inject-14"><rect x="153.44" y="73.03" width="441.45" height="295.29" style="fill:#dbdbdb"></rect><rect x="156.64" y="76.63" width="435.03" height="288.09" style="fill:#263238"></rect><rect x="95.94" y="390.47" width="556.44" height="20.27" style="fill:#c7c7c7"></rect><polygon points="95.94 390.46 153.44 368.32 594.88 368.32 652.38 390.46 95.94 390.46" style="fill:#dbdbdb"></polygon><polygon points="158.57 382.61 195.67 368.32 552.64 368.32 589.75 382.61 158.57 382.61" style="fill:#263238"></polygon><rect x="181.23" y="98.52" width="385.86" height="244.32" style="fill:#fff"></rect><rect x="180.9" y="98.52" width="386.19" height="9.4" style="fill:#455a64"></rect><path d="M188.38,103.22a2.34,2.34,0,1,1-2.34-2.33A2.33,2.33,0,0,1,188.38,103.22Z" style="fill:#c7c7c7"></path><path d="M197.9,103.22a2.34,2.34,0,1,1-2.34-2.33A2.33,2.33,0,0,1,197.9,103.22Z" style="fill:#fff"></path><path d="M207.42,103.22a2.34,2.34,0,1,1-2.33-2.33A2.33,2.33,0,0,1,207.42,103.22Z" style="fill:#EDCD2F"></path><rect x="560.24" y="107.92" width="6.85" height="234.91" style="fill:#dbdbdb"></rect><path d="M563.66,189.36h0a1.77,1.77,0,0,1-1.77-1.77V111.06a1.77,1.77,0,0,1,1.77-1.77h0a1.77,1.77,0,0,1,1.77,1.77v76.53A1.77,1.77,0,0,1,563.66,189.36Z" style="fill:#a6a6a6"></path><rect x="292.43" y="122.7" width="207.99" height="7.91" style="fill:#fff"></rect><path d="M500.5,130.69H292.35v-8.07H500.5Z" style="fill:#ebebeb"></path><rect x="492.42" y="122.62" width="8.08" height="8.08" style="fill:#EDCD2F"></rect><path d="M499,128.87l-.73.55-1.36-1.78-.49-.66a.88.88,0,0,0,.28-.16,1.25,1.25,0,0,0,.38-.48l.52.69Z" style="fill:#fff"></path><path d="M497.53,124.66a2,2,0,1,0-.65,3,1.67,1.67,0,0,0,.28-.18,2.08,2.08,0,0,0,.41-.43A2,2,0,0,0,497.53,124.66Zm-.86,2.16a.88.88,0,0,1-.28.16,1.17,1.17,0,0,1-1.39-.38,1.19,1.19,0,1,1,2.05-.26A1.25,1.25,0,0,1,496.67,126.82Z" style="fill:#fff"></path><rect x="294.08" y="124.25" width="0.42" height="4.8" style="fill:#c7c7c7"></rect><path d="M546.34,130.92a4.63,4.63,0,0,1-1.29.54,4.5,4.5,0,0,1-5.43-3.3,4.49,4.49,0,1,1,6.72,2.76Z" style="fill:#EDCD2F"></path><path d="M545.35,126.58a1.37,1.37,0,1,1-1.37-1.37A1.37,1.37,0,0,1,545.35,126.58Z" style="fill:#fff"></path><path d="M546.34,130.35v.57a4.63,4.63,0,0,1-1.29.54,4.43,4.43,0,0,1-3.43-.55v-.56a2.36,2.36,0,0,1,4.72,0Z" style="fill:#fff"></path><path d="M530.78,131.59h-3.13v-1.11a.16.16,0,0,0-.09-.15l-.34-.19a.17.17,0,0,0-.18,0l-1,.55-1.56-2.7,1-.56a.18.18,0,0,0,.08-.16c0-.06,0-.13,0-.19s0-.13,0-.19a.18.18,0,0,0-.08-.16l-1-.56,1.56-2.7,1,.55a.17.17,0,0,0,.18,0,3.79,3.79,0,0,1,.34-.2.14.14,0,0,0,.09-.14v-1.11h3.13v1.11a.18.18,0,0,0,.09.15,1.86,1.86,0,0,1,.34.19.17.17,0,0,0,.18,0l1-.55,1.56,2.7-1,.56a.18.18,0,0,0-.08.16c0,.06,0,.12,0,.19s0,.13,0,.19a.18.18,0,0,0,.08.16l1,.56-1.56,2.7-1-.55a.17.17,0,0,0-.18,0l-.34.19a.16.16,0,0,0-.09.15Zm-2.35-.78H530v-.33a.94.94,0,0,1,.52-.84l.27-.15a1,1,0,0,1,1,0l.28.17.79-1.36-.29-.17a.93.93,0,0,1-.47-.87v-.3a.94.94,0,0,1,.47-.88l.29-.16-.79-1.36-.28.16a.93.93,0,0,1-1,0l-.27-.15a1,1,0,0,1-.52-.84v-.33h-1.57v.33a1,1,0,0,1-.52.84l-.27.15a.93.93,0,0,1-1,0l-.28-.16-.79,1.36.29.16a.94.94,0,0,1,.47.88v.3a1,1,0,0,1-.47.88l-.29.16.79,1.36.28-.17a1,1,0,0,1,1,0l.27.16a.94.94,0,0,1,.52.84Zm.79-1.43a2.31,2.31,0,1,1,2.31-2.31A2.31,2.31,0,0,1,529.22,129.38Zm0-3.84a1.53,1.53,0,1,0,1.53,1.53A1.53,1.53,0,0,0,529.22,125.54Z" style="fill:#dbdbdb"></path><rect x="272.14" y="163.23" width="288.1" height="16.33" style="fill:#ebebeb"></rect><rect x="284.92" y="168.94" width="4.9" height="4.9" style="fill:#fff"></rect><polygon points="310.66 173.84 305.76 173.84 307.76 171.39 305.76 168.94 310.66 168.94 312.66 171.39 310.66 173.84" style="fill:#fff"></polygon><polygon points="298.06 168.94 298.85 170.55 300.64 170.81 299.35 172.07 299.65 173.84 298.06 173 296.46 173.84 296.77 172.07 295.48 170.81 297.26 170.55 298.06 168.94" style="fill:#EDCD2F"></polygon><rect x="316.18" y="170.39" width="39.07" height="2" style="fill:#263238"></rect><rect x="503.34" y="170.39" width="35.47" height="2" style="fill:#263238"></rect><rect x="367.18" y="170.39" width="121.26" height="2" style="fill:#455a64"></rect><rect x="284.92" y="185.27" width="4.9" height="4.9" style="fill:#fff"></rect><path d="M290.08,190.42h-5.41V185h5.41Zm-4.91-.5h4.41v-4.4h-4.41Z" style="fill:#ebebeb"></path><polygon points="310.66 190.17 305.76 190.17 307.76 187.72 305.76 185.27 310.66 185.27 312.66 187.72 310.66 190.17" style="fill:#fff"></polygon><path d="M310.78,190.42h-5.55l2.2-2.7-2.2-2.7h5.55l2.2,2.7Zm-4.5-.5h4.26l1.8-2.2-1.8-2.2h-4.26l1.8,2.2Z" style="fill:#ebebeb"></path><polygon points="298.06 185.27 298.85 186.88 300.64 187.14 299.35 188.4 299.65 190.17 298.06 189.33 296.46 190.17 296.77 188.4 295.48 187.14 297.26 186.88 298.06 185.27" style="fill:#EDCD2F"></polygon><rect x="316.18" y="186.72" width="39.07" height="2" style="fill:#263238"></rect><rect x="503.34" y="186.72" width="35.47" height="2" style="fill:#263238"></rect><rect x="367.18" y="186.72" width="121.26" height="2" style="fill:#455a64"></rect><rect x="272.14" y="195.88" width="288.1" height="16.33" style="fill:#ebebeb"></rect><rect x="284.92" y="201.59" width="4.9" height="4.9" style="fill:#fff"></rect><polygon points="310.66 206.5 305.76 206.5 307.76 204.05 305.76 201.59 310.66 201.59 312.66 204.05 310.66 206.5" style="fill:#fff"></polygon><polygon points="298.06 201.59 298.85 203.21 300.64 203.47 299.35 204.72 299.65 206.5 298.06 205.66 296.46 206.5 296.77 204.72 295.48 203.47 297.26 203.21 298.06 201.59" style="fill:#fff"></polygon><rect x="316.18" y="203.05" width="39.07" height="2" style="fill:#dbdbdb"></rect><rect x="503.34" y="203.05" width="35.47" height="2" style="fill:#dbdbdb"></rect><rect x="367.18" y="203.05" width="121.26" height="2" style="fill:#c7c7c7"></rect><rect x="284.92" y="217.92" width="4.9" height="4.9" style="fill:#fff"></rect><path d="M290.08,223.08h-5.41v-5.41h5.41Zm-4.91-.5h4.41v-4.41h-4.41Z" style="fill:#ebebeb"></path><polygon points="310.66 222.83 305.76 222.83 307.76 220.38 305.76 217.92 310.66 217.92 312.66 220.38 310.66 222.83" style="fill:#fff"></polygon><path d="M310.78,223.08h-5.55l2.2-2.7-2.2-2.71h5.55l2.2,2.71Zm-4.5-.5h4.26l1.8-2.2-1.8-2.21h-4.26l1.8,2.21Z" style="fill:#ebebeb"></path><polygon points="298.06 217.92 298.85 219.54 300.64 219.8 299.35 221.05 299.65 222.83 298.06 221.99 296.46 222.83 296.77 221.05 295.48 219.8 297.26 219.54 298.06 217.92" style="fill:#EDCD2F"></polygon><rect x="316.18" y="219.38" width="39.07" height="2" style="fill:#dbdbdb"></rect><rect x="503.34" y="219.38" width="35.47" height="2" style="fill:#dbdbdb"></rect><rect x="367.18" y="219.38" width="121.26" height="2" style="fill:#c7c7c7"></rect><rect x="272.14" y="228.54" width="288.1" height="16.33" style="fill:#ebebeb"></rect><rect x="284.92" y="234.25" width="4.9" height="4.9" style="fill:#fff"></rect><polygon points="310.66 239.16 305.76 239.16 307.76 236.7 305.76 234.25 310.66 234.25 312.66 236.7 310.66 239.16" style="fill:#fff"></polygon><polygon points="298.06 234.25 298.85 235.87 300.64 236.13 299.35 237.38 299.65 239.16 298.06 238.32 296.46 239.16 296.77 237.38 295.48 236.13 297.26 235.87 298.06 234.25" style="fill:#EDCD2F"></polygon><rect x="316.18" y="235.71" width="39.07" height="2" style="fill:#dbdbdb"></rect><rect x="503.34" y="235.71" width="35.47" height="2" style="fill:#dbdbdb"></rect><rect x="367.18" y="235.71" width="121.26" height="2" style="fill:#c7c7c7"></rect><rect x="284.92" y="250.58" width="4.9" height="4.91" style="fill:#fff"></rect><path d="M290.08,255.74h-5.41v-5.41h5.41Zm-4.91-.5h4.41v-4.41h-4.41Z" style="fill:#ebebeb"></path><polygon points="310.66 255.49 305.76 255.49 307.76 253.03 305.76 250.58 310.66 250.58 312.66 253.03 310.66 255.49" style="fill:#fff"></polygon><path d="M310.78,255.74h-5.55l2.2-2.71-2.2-2.7h5.55L313,253Zm-4.5-.5h4.26l1.8-2.21-1.8-2.2h-4.26l1.8,2.2Z" style="fill:#ebebeb"></path><polygon points="298.06 250.58 298.85 252.19 300.64 252.45 299.35 253.71 299.65 255.49 298.06 254.65 296.46 255.49 296.77 253.71 295.48 252.45 297.26 252.19 298.06 250.58" style="fill:#fff"></polygon><path d="M300,255.94l-1.92-1-1.93,1,.37-2.14-1.56-1.52,2.15-.31,1-1.95,1,1.95,2.15.31-1.55,1.52Zm-1.92-1.57,1.26.66-.24-1.41,1-1-1.41-.21-.63-1.27-.63,1.27-1.41.21,1,1L296.8,255Z" style="fill:#ebebeb"></path><rect x="316.18" y="252.04" width="39.07" height="2" style="fill:#dbdbdb"></rect><rect x="503.34" y="252.04" width="35.47" height="2" style="fill:#dbdbdb"></rect><rect x="367.18" y="252.04" width="121.26" height="2" style="fill:#c7c7c7"></rect><rect x="272.14" y="261.2" width="288.1" height="16.33" style="fill:#ebebeb"></rect><rect x="284.92" y="266.91" width="4.9" height="4.9" style="fill:#fff"></rect><polygon points="310.66 271.81 305.76 271.81 307.76 269.36 305.76 266.91 310.66 266.91 312.66 269.36 310.66 271.81" style="fill:#fff"></polygon><polygon points="298.06 266.91 298.85 268.52 300.64 268.78 299.35 270.04 299.65 271.81 298.06 270.98 296.46 271.81 296.77 270.04 295.48 268.78 297.26 268.52 298.06 266.91" style="fill:#EDCD2F"></polygon><rect x="316.18" y="268.36" width="39.07" height="2" style="fill:#dbdbdb"></rect><rect x="503.34" y="268.36" width="35.47" height="2" style="fill:#dbdbdb"></rect><rect x="367.18" y="268.36" width="121.26" height="2" style="fill:#c7c7c7"></rect><rect x="284.92" y="283.24" width="4.9" height="4.9" style="fill:#fff"></rect><path d="M290.08,288.39h-5.41V283h5.41Zm-4.91-.5h4.41v-4.4h-4.41Z" style="fill:#ebebeb"></path><polygon points="310.66 288.14 305.76 288.14 307.76 285.69 305.76 283.24 310.66 283.24 312.66 285.69 310.66 288.14" style="fill:#fff"></polygon><path d="M310.78,288.39h-5.55l2.2-2.7-2.2-2.7h5.55l2.2,2.7Zm-4.5-.5h4.26l1.8-2.2-1.8-2.2h-4.26l1.8,2.2Z" style="fill:#ebebeb"></path><polygon points="298.06 283.24 298.85 284.85 300.64 285.11 299.35 286.37 299.65 288.14 298.06 287.31 296.46 288.14 296.77 286.37 295.48 285.11 297.26 284.85 298.06 283.24" style="fill:#fff"></polygon><path d="M300,288.6l-1.92-1-1.93,1,.37-2.14-1.56-1.52,2.15-.32,1-1.95,1,1.95,2.15.32-1.55,1.52ZM298.06,287l1.26.67-.24-1.41,1-1-1.41-.21-.63-1.28-.63,1.28-1.41.21,1,1-.24,1.41Z" style="fill:#ebebeb"></path><rect x="316.18" y="284.69" width="39.07" height="2" style="fill:#dbdbdb"></rect><rect x="503.34" y="284.69" width="35.47" height="2" style="fill:#dbdbdb"></rect><rect x="367.18" y="284.69" width="121.26" height="2" style="fill:#c7c7c7"></rect><rect x="272.14" y="293.85" width="288.1" height="16.33" style="fill:#ebebeb"></rect><rect x="284.92" y="299.57" width="4.9" height="4.91" style="fill:#fff"></rect><polygon points="310.66 304.47 305.76 304.47 307.76 302.02 305.76 299.57 310.66 299.57 312.66 302.02 310.66 304.47" style="fill:#fff"></polygon><polygon points="298.06 299.57 298.85 301.18 300.64 301.44 299.35 302.7 299.65 304.47 298.06 303.63 296.46 304.47 296.77 302.7 295.48 301.44 297.26 301.18 298.06 299.57" style="fill:#fff"></polygon><rect x="316.18" y="301.02" width="39.07" height="2" style="fill:#dbdbdb"></rect><rect x="503.34" y="301.02" width="35.47" height="2" style="fill:#dbdbdb"></rect><rect x="367.18" y="301.02" width="121.26" height="2" style="fill:#c7c7c7"></rect><rect x="284.92" y="315.89" width="4.9" height="4.91" style="fill:#fff"></rect><path d="M290.08,321.05h-5.41v-5.41h5.41Zm-4.91-.5h4.41v-4.41h-4.41Z" style="fill:#ebebeb"></path><polygon points="310.66 320.8 305.76 320.8 307.76 318.35 305.76 315.89 310.66 315.89 312.66 318.35 310.66 320.8" style="fill:#fff"></polygon><path d="M310.78,321.05h-5.55l2.2-2.7-2.2-2.71h5.55l2.2,2.71Zm-4.5-.5h4.26l1.8-2.2-1.8-2.21h-4.26l1.8,2.21Z" style="fill:#ebebeb"></path><polygon points="298.06 315.89 298.85 317.51 300.64 317.77 299.35 319.02 299.65 320.8 298.06 319.96 296.46 320.8 296.77 319.02 295.48 317.77 297.26 317.51 298.06 315.89" style="fill:#fff"></polygon><path d="M300,321.26l-1.92-1-1.93,1,.37-2.15-1.56-1.52,2.15-.31,1-1.95,1,1.95,2.15.31-1.55,1.52Zm-1.92-1.58,1.26.66-.24-1.4,1-1-1.41-.2-.63-1.28-.63,1.28-1.41.2,1,1-.24,1.4Z" style="fill:#ebebeb"></path><rect x="316.18" y="317.35" width="39.07" height="2" style="fill:#dbdbdb"></rect><rect x="503.34" y="317.35" width="35.47" height="2" style="fill:#dbdbdb"></rect><rect x="367.18" y="317.35" width="121.26" height="2" style="fill:#c7c7c7"></rect><rect x="272.14" y="326.51" width="288.1" height="16.33" style="fill:#ebebeb"></rect><rect x="284.92" y="332.22" width="4.9" height="4.9" style="fill:#fff"></rect><polygon points="310.66 337.13 305.76 337.13 307.76 334.68 305.76 332.22 310.66 332.22 312.66 334.68 310.66 337.13" style="fill:#fff"></polygon><polygon points="298.06 332.22 298.85 333.84 300.64 334.1 299.35 335.35 299.65 337.13 298.06 336.29 296.46 337.13 296.77 335.35 295.48 334.1 297.26 333.84 298.06 332.22" style="fill:#EDCD2F"></polygon><rect x="316.18" y="333.68" width="39.07" height="2" style="fill:#dbdbdb"></rect><rect x="503.34" y="333.68" width="35.47" height="2" style="fill:#dbdbdb"></rect><rect x="367.18" y="333.68" width="121.26" height="2" style="fill:#c7c7c7"></rect><rect x="300.72" y="148.5" width="54.54" height="5.84" style="fill:#dbdbdb"></rect><rect x="284.92" y="148.5" width="7.43" height="5.84" style="fill:#dbdbdb"></rect><path d="M292.36,148.5l-.91.95-.92.93-1,1,0,0-.86.83,0,0,0,0-.86-.84,0,0-1-1-.92-.93-.91-.95c.32.27.63.56.95.85l.94.87,1.05,1h0l.78.75.78-.75h0l1.05-1,.94-.87C291.73,149.06,292,148.77,292.36,148.5Z" style="fill:#fff"></path><path d="M287.87,151.2h0l-.12.15c-.18.25-.38.48-.57.7l-.72.81-.74.76c-.25.25-.51.49-.77.71.22-.3.46-.59.7-.86s.48-.54.72-.81.49-.52.74-.76.4-.39.61-.57l.15-.13Z" style="fill:#fff"></path><path d="M292.34,154.34c-.26-.22-.52-.46-.77-.71l-.74-.76c-.24-.27-.49-.53-.72-.81s-.39-.45-.57-.69l-.12-.16h0l.15.13c.21.18.41.37.61.57s.5.5.74.76.49.53.72.81S292.11,154,292.34,154.34Z" style="fill:#fff"></path><rect x="392.5" y="148.5" width="54.54" height="5.84" style="fill:#dbdbdb"></rect><path d="M380.06,150.48a1.24,1.24,0,1,1-1.24-1.24A1.23,1.23,0,0,1,380.06,150.48Z" style="fill:#dbdbdb"></path><path d="M381,153.89v.45h-4.28v-.45a2.14,2.14,0,1,1,4.28,0Z" style="fill:#dbdbdb"></path><path d="M383.23,149.73A1.24,1.24,0,1,1,382,148.5,1.23,1.23,0,0,1,383.23,149.73Z" style="fill:#dbdbdb"></path><path d="M384.13,153.14v.45h-4.28v-.45a2.14,2.14,0,0,1,4.28,0Z" style="fill:#dbdbdb"></path><rect x="484.28" y="148.5" width="54.54" height="5.84" style="fill:#dbdbdb"></rect><path d="M475.91,148.5h-7.43v5.84h7.43l2.22-2.92Zm.06,3.36a.44.44,0,0,1-.44-.44A.44.44,0,0,1,476,151a.43.43,0,0,1,.44.44A.44.44,0,0,1,476,151.86Z" style="fill:#dbdbdb"></path><rect x="180.9" y="107.92" width="91.24" height="234.91" style="fill:#EDCD2F"></rect><rect x="193.66" y="142.7" width="65.73" height="17.43" style="fill:#fff"></rect><rect x="193.66" y="122.62" width="9.16" height="1.47" style="fill:#fff"></rect><rect x="193.66" y="129.22" width="9.16" height="1.47" style="fill:#fff"></rect><rect x="193.66" y="125.96" width="9.16" height="1.47" style="fill:#fff"></rect><rect x="211.52" y="122.62" width="12.74" height="8.08" style="fill:#ebebeb"></rect><path d="M224.26,122.62v8.07H211.52v-8.07c.55.31,1.09.63,1.63.95s1.08.64,1.61,1l1.79,1.11h0l1.34.84,1.34-.84h0l1.79-1.11c.53-.33,1.07-.65,1.61-1S223.71,122.93,224.26,122.62Z" style="fill:#ebebeb"></path><path d="M224.26,122.62l-1.56,1.06-1.57,1-1.65,1.07,0,0-1.47.94-.07,0-.07,0-1.47-.94,0,0-1.65-1.07-1.57-1-1.56-1.06c.55.31,1.09.63,1.63.95s1.08.64,1.61,1l1.79,1.11h0l1.34.84,1.34-.84h0l1.79-1.11c.53-.33,1.07-.65,1.61-1S223.71,122.93,224.26,122.62Z" style="fill:#fff"></path><path d="M216.57,125.64h0l-.2.17c-.32.27-.64.53-1,.78s-.82.61-1.23.9-.84.58-1.27.85-.87.55-1.32.79c.39-.34.79-.65,1.2-1s.82-.61,1.23-.9.84-.58,1.28-.85.69-.44,1-.64l.25-.14Z" style="fill:#fff"></path><path d="M224.23,129.14c-.45-.24-.89-.51-1.32-.79s-.85-.56-1.27-.85-.83-.59-1.24-.9-.65-.51-1-.78l-.2-.17h0l.25.14c.35.2.7.42,1,.64s.86.56,1.27.85.84.59,1.24.9S223.84,128.8,224.23,129.14Z" style="fill:#fff"></path><rect x="180.9" y="175.33" width="91.24" height="12.39" style="fill:#020100;opacity:0.1"></rect><rect x="193.66" y="177.99" width="52.91" height="7.28" style="fill:#fff"></rect><rect x="193.66" y="192.24" width="52.91" height="7.28" style="fill:#fff"></rect><rect x="193.66" y="206.5" width="52.91" height="7.28" style="fill:#fff"></rect><rect x="193.66" y="220.75" width="52.91" height="7.28" style="fill:#fff"></rect><rect x="204.89" y="235.01" width="52.91" height="7.28" style="fill:#455a64"></rect><rect x="204.89" y="249.26" width="52.91" height="7.28" style="fill:#455a64"></rect><rect x="193.66" y="263.52" width="52.91" height="7.28" style="fill:#fff"></rect><rect x="193.66" y="277.77" width="52.91" height="7.28" style="fill:#fff"></rect></g><g id="freepik--paper-plane--inject-14"><path d="M180.36,268.47c-.06-.68-.09-1.36-.09-2H181c0,.65,0,1.31.09,2Z" style="fill:#263238"></path><path d="M244.78,316.11v-.75c1.33,0,2.67-.05,4-.14l.05.75C247.47,316.05,246.12,316.1,244.78,316.11Zm-5-.15c-1.34-.09-2.69-.22-4-.39l.09-.74c1.31.16,2.65.29,4,.38Zm14.06-.5-.1-.75c1.3-.18,2.63-.4,3.93-.66l.14.74C256.47,315.05,255.13,315.27,253.81,315.46Zm-23-.71c-1.3-.26-2.62-.57-3.92-.91l.19-.72c1.28.33,2.59.64,3.88.9Zm31.91-1.11-.19-.72c1.27-.34,2.56-.73,3.82-1.15l.23.72C265.27,312.91,264,313.29,262.68,313.64ZM222,312.38c-1.27-.43-2.54-.9-3.78-1.41l.29-.69c1.22.5,2.48,1,3.73,1.39Zm49.24-1.62-.28-.7c.64-.25,1.28-.52,1.92-.8s1.16-.51,1.73-.78l.32.67c-.58.28-1.16.54-1.75.8Zm-57.61-1.85c-1.2-.58-2.4-1.22-3.56-1.87l.36-.66c1.16.65,2.34,1.28,3.53,1.86Zm65.74-2.11-.38-.65c1.13-.66,2.26-1.38,3.35-2.13l.42.62C281.69,305.4,280.55,306.12,279.4,306.8Zm-73.6-2.38c-1.12-.73-2.23-1.51-3.3-2.31l.44-.6c1.07.79,2.17,1.56,3.27,2.28Zm81-2.8-.47-.58c1-.82,2-1.7,3-2.61l.51.55C288.85,299.9,287.83,300.79,286.81,301.62ZM198.56,299c-1-.87-2-1.79-3-2.72l.52-.54c1,.92,1.94,1.83,3,2.69Zm94.85-3.53-.54-.52c.89-.95,1.78-1.95,2.65-3l.57.49C295.21,293.47,294.31,294.48,293.41,295.44ZM192.1,292.62c-.9-1-1.76-2.06-2.58-3.11l.6-.46c.8,1,1.65,2.07,2.54,3.07Zm107.14-4.1-.6-.46c.78-1,1.57-2.11,2.35-3.22l.62.43C300.82,286.39,300,287.48,299.24,288.52Zm-112.62-3.13c-.74-1.15-1.42-2.32-2-3.49l.67-.35c.6,1.15,1.28,2.3,2,3.43Zm117.79-4.29-.63-.4c.72-1.12,1.42-2.25,2.12-3.39l.64.39C305.84,278.85,305.13,280,304.41,281.1Zm-121.93-3.79a35.85,35.85,0,0,1-1.25-3.85l.72-.19a36,36,0,0,0,1.23,3.77Zm126.61-3.94-.66-.37c.66-1.15,1.31-2.32,2-3.5l.65.36Q310.08,271.63,309.09,273.37Zm4.33-7.93-.67-.35c.62-1.17,1.24-2.36,1.85-3.55l.67.34C314.65,263.08,314,264.27,313.42,265.44Zm4.12-8-.67-.34,1.8-3.58.67.33Zm4-8.07-.67-.34,1.8-3.58.67.33Zm4.06-8L325,241c.6-1.19,1.22-2.38,1.84-3.57l.66.35Zm4.18-8-.66-.36q.94-1.76,1.92-3.51l.66.36Q330.77,231.57,329.82,233.32Zm4.38-7.84-.65-.38q1-1.72,2-3.45l.65.39C335.55,223.18,334.87,224.33,334.2,225.48Zm4.67-7.67-.63-.4c.72-1.13,1.45-2.24,2.2-3.35l.62.42C340.31,215.58,339.59,216.69,338.87,217.81Zm5-7.43-.61-.44c.78-1.09,1.58-2.16,2.39-3.23l.6.45C345.48,208.23,344.69,209.3,343.91,210.38Zm5.47-7.13-.58-.48c.86-1,1.73-2.07,2.6-3.06l.56.49C351.1,201.19,350.23,202.21,349.38,203.25Zm5.95-6.73-.55-.52c.93-1,1.88-1.94,2.82-2.86l.53.53C357.19,194.59,356.25,195.55,355.33,196.52Zm6.44-6.26-.5-.55c1-.89,2-1.78,3-2.63l.48.58C363.77,188.5,362.75,189.38,361.77,190.26Zm6.93-5.69-.45-.6c1.07-.81,2.17-1.6,3.26-2.35l.42.62C370.85,183,369.77,183.77,368.7,184.57Zm7.39-5.08-.39-.63c1.13-.71,2.29-1.4,3.45-2.06l.37.65C378.37,178.1,377.22,178.79,376.09,179.49Z" style="fill:#263238"></path><path d="M384.08,175l-.34-.66q.88-.47,1.8-.9l.33.68Z" style="fill:#263238"></path><polygon points="381.81 162.9 375.54 180.13 388.71 169.84 439.05 151.58 381.81 162.9" style="fill:#EDCD2F"></polygon><polygon points="381.81 162.9 375.54 180.13 388.71 169.84 439.05 151.58 381.81 162.9" style="opacity:0.1"></polygon><polygon points="390.4 173.85 375.54 180.13 388.71 169.84 390.4 173.85" style="fill:#263238"></polygon><polygon points="388.71 169.84 439.05 151.58 397.76 191.88 388.71 169.84" style="fill:#EDCD2F"></polygon><polygon points="381.81 162.9 360.89 149.39 439.05 151.58 381.81 162.9" style="fill:#EDCD2F"></polygon></g><g id="freepik--Notification--inject-14"><circle cx="561.89" cy="107.36" r="48.78" transform="translate(322.6 626.97) rotate(-76.09)" style="fill:#a6a6a6"></circle><rect x="528.6" y="86.25" width="66.59" height="42.23" style="fill:#fff"></rect><path d="M595.19,86.25c-2.69,2.57-5.43,5-8.14,7.56s-5.47,5-8.22,7.41-5.75,5.09-8.63,7.61l-.26.24-7.67,6.66-.38.31-.37-.31-7.66-6.67-.27-.23c-2.89-2.52-5.77-5-8.64-7.63s-5.48-4.91-8.21-7.39-5.45-5-8.14-7.56c2.86,2.2,5.67,4.52,8.5,6.78s5.64,4.6,8.44,6.94c3.12,2.58,6.24,5.21,9.35,7.86,0,0,0,0,0,0,2.33,2,4.66,4,7,5.94,2.32-2,4.65-4,7-5.94,0,0,0,0,0,0q4.67-4,9.35-7.87c2.8-2.32,5.61-4.64,8.43-6.92S592.33,88.45,595.19,86.25Z" style="fill:#dbdbdb"></path><path d="M555,108.79l-.08.07-1,.89c-1.67,1.41-3.38,2.76-5.12,4.07-2.12,1.62-4.29,3.17-6.47,4.71s-4.39,3-6.64,4.46-4.52,2.85-6.87,4.14c2-1.77,4.12-3.42,6.24-5s4.3-3.17,6.47-4.72,4.4-3,6.65-4.46c1.79-1.15,3.61-2.28,5.47-3.34l1.3-.73Z" style="fill:#dbdbdb"></path><path d="M595,127.13c-2.35-1.29-4.63-2.7-6.87-4.14s-4.45-2.94-6.65-4.46-4.35-3.09-6.47-4.71c-1.73-1.31-3.44-2.65-5.1-4.06l-1.06-.9-.08-.07.1,0,1.3.74c1.86,1.06,3.67,2.19,5.47,3.34,2.25,1.44,4.45,2.94,6.64,4.46s4.35,3.1,6.47,4.72S593,125.36,595,127.13Z" style="fill:#dbdbdb"></path><circle cx="587.9" cy="86.25" r="10.74" transform="translate(3.82 195.41) rotate(-18.93)" style="fill:#EDCD2F"></circle><path d="M586.72,88.61V79.87a1.2,1.2,0,0,1,1.19-1.19,1.18,1.18,0,0,1,1.17,1.19v8.74a1.16,1.16,0,0,1-1.17,1.18A1.18,1.18,0,0,1,586.72,88.61Zm1.19,5.21a1.19,1.19,0,0,1-1.19-1.19V92.2A1.2,1.2,0,0,1,587.91,91a1.18,1.18,0,0,1,1.17,1.19v.43A1.17,1.17,0,0,1,587.91,93.82Z" style="fill:#fff"></path></g><g id="freepik--Plant--inject-14"><path d="M638,263.84a75.64,75.64,0,0,1,1.76-12.34,27.34,27.34,0,0,1,4.41-10.41,13.2,13.2,0,0,1,8.64-5.39c3.39-.41,6.57,1.1,9.1,3.23,3.14,2.64,5.54,6.14,7.79,9.53a116.45,116.45,0,0,1,6.74,11.79c.07.13-.14.24-.21.11a72.58,72.58,0,0,0-6-9.86,62,62,0,0,0-6.93-8.4c-2.33-2.27-5.28-4.39-8.65-4.5a10.65,10.65,0,0,0-8.46,4.36c-2.25,2.89-3.4,6.49-4.26,10a75,75,0,0,0-1.73,11.75c-.67,8.13-.85,16.31-1,24.46Q639,295.11,639,302l-.06,7a41.2,41.2,0,0,1-.27,6.76c-.07.46-.81.41-.89,0a40.32,40.32,0,0,1-.31-6.41c0-2.21-.06-4.43-.08-6.64q-.06-6.47,0-12.93C637.35,281.15,637.45,272.47,638,263.84Z" style="fill:#263238"></path><path d="M649.66,257.71c.43-2.3,1.21-5.29,2.52-7.08,2.35-3.2,4.89-1.8,2.54,1.74a21.26,21.26,0,0,0-3.3,8.74s4,5.65,8.73,8.44c-.2-2.18-.82-5.52-.39-8.74.92-7,5.14-6.59,4.1-1.05a47.89,47.89,0,0,0-1,11.22,23.62,23.62,0,0,0,5.1,2.5c-.27-.81-.56-1.78-.88-3-1.7-6.26,2.48-8.21,2.61-4.69a49,49,0,0,0,1.62,8.88c2.29.77,4.19,1.3,5.35,1.71a19.44,19.44,0,0,1,7.83,5.35,24.68,24.68,0,0,0,5.34-6.91c-1.46-1.25-3.77-3.12-7-5.38-6-4.24-3.91-9.59.85-6.26,3.44,2.4,6.1,6.85,7.3,9.13a37.1,37.1,0,0,0,2.73-12.5c-4.72-4.42-16.38-10.59-12.86-10.59,3.16,0,10.24,4.64,12.83,6.43a32.42,32.42,0,0,0-.4-3.64c-4.44-2.91-18.87-7.43-16.57-8.74,2.53-1.42,12.6,3.24,15.64,4.71a18.31,18.31,0,0,0-2.67-5.52c-6.13-8.22-17.2-11.05-22-9.48-3.42,1.11-2.42,9.77-3.16,9.48C650.85,237,644.61,240.88,649.66,257.71Zm33.63-.95c1-1.17,5.48,2.29,4.18,4.18S682,258.27,683.29,256.76Zm-23.52-7.39c1.18.75-.57,5.13-2.4,3.81C655.82,252.05,658.57,248.61,659.77,249.37Z" style="fill:#EDCD2F"></path><path d="M661.56,250.71c.62-1.22,1.27-2.44,2-3.62a21.28,21.28,0,0,1,2.27-3.28c-.2-.24-.38-.49-.59-.73s.06-.23.15-.13c.23.26.45.53.67.8a.17.17,0,0,1,.09.11c.85,1,1.65,2.06,2.41,3.13a36.41,36.41,0,0,1,4,1.15c1.35.45,2.68.92,4,1.47.13.06.07.29-.07.23-1.3-.58-2.61-1.13-4-1.59s-2.57-.76-3.85-1.12c.41.59.83,1.19,1.22,1.79a47.4,47.4,0,0,1,7,2.88c2.38,1.13,4.67,2.44,7,3.76a.12.12,0,0,1-.12.2,75.47,75.47,0,0,0-6.92-3.58c-2.21-1-4.49-1.88-6.71-2.87,5.6,8.75,9,18.84,13.45,28.18.07.14-.14.25-.2.11-1.37-3.27-3-6.47-4.45-9.69-1.34-2.89-2.65-5.8-4-8.69-.39-.85-.8-1.7-1.21-2.54.25,4.67.15,9.42.91,14a.11.11,0,1,1-.22,0c-.33-5-1.21-9.9-1.17-14.92,0,0,0,0,0-.06-1-1.91-2-3.79-3-5.63-1.86,4.38-3.81,8.81-4.68,13.51,0,.14-.26.08-.22-.07,1.26-4.71,2.43-9.42,4.7-13.77a54.31,54.31,0,0,0-4-5.68c-.62,1.16-1.42,2.26-2.13,3.37s-1.37,2.17-2,3.29a48.21,48.21,0,0,0-3.5,7.41c0,.14-.28.07-.22-.07C659.25,255.63,660.34,253.13,661.56,250.71Z" style="fill:#263238"></path><path d="M617.39,261.35c3.6-3.61,7.78-8.34,13.34-8.33,5.36,0,9.31,4.32,11.57,8.78,2.37,4.66,3.23,9.93,3.9,15.06a185.43,185.43,0,0,1,1.42,18.53c.1,3.44.08,6.88,0,10.32a68.36,68.36,0,0,1-.79,10.41c-.1.56-1,.58-1,0-.17-2.9,0-5.81,0-8.71s0-5.7-.14-8.56c-.21-5.77-.63-11.53-1.31-17.26-.59-5-1.06-10.16-2.56-15-1.35-4.37-3.89-9.36-8.31-11.28-6-2.61-11.94,2.17-15.89,6.2C617.47,261.6,617.29,261.45,617.39,261.35Z" style="fill:#263238"></path><path d="M599.05,269.4h0c0,.74.07,1.47.12,2.18a13,13,0,0,1,5.89-2.44c5.1-.54,4.78,3.34,1.37,3.5a19.43,19.43,0,0,0-7,1.4c.83,6.74,2.68,12.16,3,12.23a97.67,97.67,0,0,0,13.49-1.7c-1.27-2.71-4.16-6.3-2.69-6.59s3.08,2.91,3.9,6.34a64.94,64.94,0,0,0,9.81-2.7c-2.25-1.94-5.72-4.36-4.39-5.39s4.08,2.37,5.73,4.85a19.87,19.87,0,0,0,4.24-2.37c-3-4.44-10.4-5.34-9.44-8.55s7.86,1.24,11,7.19c3.63-3.77,4.7-9.11,4.32-13.67-3.17-.37-9.27.3-8.82-2s4.84-1.84,8.45-.51a12.7,12.7,0,0,0-2.12-5c-3.34-4.29-13.53,1.16-13.53,1.16s1.09-10.24-2.79-12c-2.24-1-6.19-1-10.16,1.33,2.23.18,4.91.89,6,2.43,1.39,2-.79,3-2.18,2.13-1-.65-2.8-2.67-6.09-2.94a20.43,20.43,0,0,0-3.67,4.07,19.83,19.83,0,0,0-1.08,1.7,14,14,0,0,1,11.93.21c4.41,2.19,2,6.78-1.85,5S605,255.74,601,256.74A28.55,28.55,0,0,0,599,268.16a20,20,0,0,1,6.55-3.14c4.39-1.15,5.71,1.47.89,2A19.59,19.59,0,0,0,599.05,269.4Zm5.34-7c-.3-1.42,2.81-1.83,3.33-.67C608.15,262.66,604.69,263.78,604.39,262.35ZM631,270.23c.3-.77,2.38.11,2.19,1.08C633,272.6,630.75,271,631,270.23Zm-14.71,5c1.52-.6,3.89,3.17,2.24,4S615.08,275.72,616.32,275.22Z" style="fill:#EDCD2F"></path><path d="M603,285.5c2.29-3.82,4.55-7.67,7-11.43q1.68-2.62,3.51-5.14l-.55-.13-.91-.18c-.7-.12-1.41-.22-2.12-.29a19.34,19.34,0,0,0-2-.11,9.67,9.67,0,0,0-2.15.11c-.08,0-.1-.12,0-.11.71,0,1.44-.07,2.16-.08s1.39,0,2.08.05,1.31.1,1.95.2l1.07.19c.21,0,.43.07.64.13q1.86-2.55,3.86-5a45.79,45.79,0,0,0-12.53-4,.06.06,0,0,1,0-.12,42.52,42.52,0,0,1,12.71,3.86c.73-.9,1.46-1.79,2.2-2.68s1.72-2,2.47-3c0-.07.15,0,.09.07a45.4,45.4,0,0,0-2.91,3.55h0a42.75,42.75,0,0,1,4.65,3.74c1.53,1.35,3,2.74,4.46,4.18.05,0,0,.13-.09.08q-2.13-2.13-4.45-4.06c-1.54-1.28-3.17-2.46-4.73-3.73,0,0,0,0,0,0-.35.47-.71.94-1.07,1.4l-.53.71,0,0c-.6.77-1.19,1.55-1.78,2.33a19.48,19.48,0,0,1,1.77,3.19c.51,1.08,1,2.2,1.37,3.32a48.86,48.86,0,0,1,1.91,7.17c0,.07-.1.1-.11,0a42.05,42.05,0,0,0-2.09-7c-.44-1.17-.95-2.31-1.47-3.45s-1.05-2-1.5-3.07c-.51.68-1,1.36-1.52,2.06l-.43.6c0,.05,0,.11,0,.11h0c-1.57,2.19-3.06,4.44-4.52,6.71a2.18,2.18,0,0,1,.2.5c.09.28.18.55.26.83a14.15,14.15,0,0,1,.4,1.71c.1.54.18,1.08.23,1.63a14.26,14.26,0,0,0,.14,1.85c0,.09-.13.1-.12,0a6.31,6.31,0,0,0-.12-1.73c-.09-.59-.2-1.18-.33-1.76s-.27-1-.42-1.56c-.08-.26-.17-.52-.25-.78a4.09,4.09,0,0,1-.16-.42c-.68,1.07-1.36,2.14-2,3.22-1.32,2.14-2.63,4.29-3.94,6.43C603.09,285.71,602.92,285.61,603,285.5Z" style="fill:#263238"></path><path d="M638.28,314.89c.06-2.17.4-4.36.64-6.51s.48-4.33.71-6.5a95.89,95.89,0,0,1,1.68-12.54,18.2,18.2,0,0,1,5.1-9.38,8.28,8.28,0,0,1,5-2.38,8.59,8.59,0,0,1,5.31,1.63,18.55,18.55,0,0,1,4.47,4.71,46.18,46.18,0,0,1,3.48,5.66c0,.07-.08.12-.12.05a29,29,0,0,0-7.53-8.45,8.93,8.93,0,0,0-4.75-2,6.44,6.44,0,0,0-4.61,1.84,17.27,17.27,0,0,0-4.86,8.61,86.79,86.79,0,0,0-1.89,11.58l-.9,6.88c-.3,2.29-.49,4.63-1,6.88A.38.38,0,0,1,638.28,314.89Z" style="fill:#263238"></path><path d="M649,298.05a12.09,12.09,0,0,0,2.35,2.4c-.35-2.11-.78-5.87.29-7.87,1.65-3.11,3.62-1.56,2.63,1.14a22,22,0,0,0-1.6,7.66,32.56,32.56,0,0,0,7.21,3.4,11.8,11.8,0,0,1-.24-3.71c.33-3.32,2.87-3.26,2.21.2a21.46,21.46,0,0,0-.35,4.06,74.88,74.88,0,0,0,11.23,2.53,32.84,32.84,0,0,0,4.65-8.27c-2.71-.68-8.19-.83-8.07-2.76.16-2.6,5.46-.6,8.57,1.28a20.63,20.63,0,0,0,.93-7,34.81,34.81,0,0,0-7.46-1.24c-5.57-.48-5.29-3.64-1.26-3.57,3,.06,6.75,1.88,8.53,2.83-1.16-7.58-6.94-12.43-11.57-12.62-7.79-.31-5,9.38-5,9.38s-5.28-3.71-10.26-3.61S643.62,290.63,649,298.05Zm20.8-14c-.17-1.09,3.31-1.35,3.49.05C673.45,285.65,669.93,285.14,669.75,284Zm5.6,11.37c-.08-.71,1.43-.83,1.77.06C677.34,296.05,675.41,296.11,675.35,295.4Zm-18.71.67c1.18.16,1.84,4.36-.18,4.28C654.92,300.28,655.65,295.93,656.64,296.07Z" style="fill:#EDCD2F"></path><path d="M658.27,300.73c.19-.52.36-1.05.53-1.59-.15.54-.29,1.08-.39,1.63A.07.07,0,1,1,658.27,300.73Z" style="fill:#263238"></path><path d="M660.32,294c.37-1.07.78-2.14,1.19-3.19.23-.57.46-1.13.71-1.68a7.09,7.09,0,0,1,.69-1.41,10.42,10.42,0,0,1-.63-1.36s0-.07.07,0a15.81,15.81,0,0,1,1.52,2.36c.22.36.42.74.63,1.11a9.4,9.4,0,0,1,1.31.2c.47.09.94.18,1.4.29l1.39.32c.46.11.91.26,1.38.33.11,0,.06.19,0,.15a8,8,0,0,0-1.46-.38c-.44-.1-.89-.18-1.34-.24s-.91-.13-1.37-.17l-1-.08c.19.32.38.65.56,1l.09.15a4.61,4.61,0,0,1,1.11.13c.41.08.81.15,1.21.24.81.18,1.62.37,2.42.6,1.69.47,3.35,1,5,1.55.09,0,0,.17-.06.14a48.86,48.86,0,0,0-5-1.4l-2.39-.53-1.2-.25a7,7,0,0,1-.93-.21c.85,1.59,1.66,3.19,2.4,4.84,1.62,3.57,3,7.25,4.36,10.92,0,.09-.1.15-.13.06a101.09,101.09,0,0,0-4.65-10.68c-.31-.63-.63-1.26-.94-1.9,0,.13-.06.26-.08.39-.08.43-.16.87-.23,1.3-.15.87-.3,1.74-.43,2.61a30.94,30.94,0,0,0-.63,5.41.08.08,0,1,1-.15,0c.14-.86.14-1.76.2-2.63s.12-1.83.23-2.73.21-1.75.36-2.62c.07-.43.14-.87.22-1.3a2.67,2.67,0,0,1,.25-.94c-.46-.92-.91-1.84-1.37-2.75s-.87-1.71-1.32-2.56l-.59-1.09a8.71,8.71,0,0,1-.52,1.31l-.6,1.48c-.44,1.08-.86,2.18-1.28,3.28-.58,1.56-1.23,3.15-1.72,4.78C659.39,297.17,659.79,295.55,660.32,294Z" style="fill:#263238"></path><path d="M658.8,299.14c0-.12.07-.25.11-.37C658.87,298.89,658.84,299,658.8,299.14Z" style="fill:#263238"></path><polygon points="625.25 310.67 625.8 322.26 627.21 352.15 658.05 352.15 659.46 322.26 660.01 310.67 625.25 310.67" style="fill:#37474f"></polygon><polygon points="625.25 310.67 625.8 322.26 659.46 322.26 660.01 310.67 625.25 310.67" style="fill:#263238"></polygon><rect x="623.06" y="305.98" width="39.14" height="9.38" transform="translate(1285.26 621.34) rotate(180)" style="fill:#37474f"></rect><rect x="650.14" y="352.15" width="5.41" height="4.91" style="fill:#37474f"></rect><rect x="650.14" y="352.15" width="5.41" height="2.45" style="fill:#263238"></rect><rect x="629.71" y="352.15" width="5.41" height="4.91" style="fill:#37474f"></rect><rect x="629.71" y="352.15" width="5.41" height="2.45" style="fill:#263238"></rect></g></svg>